<?xml version="1.0" encoding="UTF-8"?>
<svg xmlns="http://www.w3.org/2000/svg" xmlns:xlink="http://www.w3.org/1999/xlink" width="109.173pt" height="17.8pt" viewBox="0 0 109.173 17.8" version="1.1">
<defs>
<clipPath id="clip1">
  <path d="M 0 0 L 24 0 L 24 17.800781 L 0 17.800781 Z M 0 0 "/>
</clipPath>
<clipPath id="clip2">
  <path d="M 7 0 L 39 0 L 39 17.800781 L 7 17.800781 Z M 7 0 "/>
</clipPath>
<clipPath id="clip3">
  <path d="M 23 0 L 55 0 L 55 17.800781 L 23 17.800781 Z M 23 0 "/>
</clipPath>
<clipPath id="clip4">
  <path d="M 39 0 L 71 0 L 71 17.800781 L 39 17.800781 Z M 39 0 "/>
</clipPath>
<clipPath id="clip5">
  <path d="M 54 0 L 86 0 L 86 17.800781 L 54 17.800781 Z M 54 0 "/>
</clipPath>
<clipPath id="clip6">
  <path d="M 70 0 L 102 0 L 102 17.800781 L 70 17.800781 Z M 70 0 "/>
</clipPath>
<clipPath id="clip7">
  <path d="M 85 0 L 109.171875 0 L 109.171875 17.800781 L 85 17.800781 Z M 85 0 "/>
</clipPath>
</defs>
<g id="surface1">
<path style=" stroke:none;fill-rule:nonzero;fill:rgb(75.999451%,86.729431%,92.753601%);fill-opacity:1;" d="M 14.832031 4.847656 L 7.816406 0.796875 L 0.800781 4.847656 L 0.800781 12.949219 L 7.816406 17 L 14.832031 12.949219 Z M 14.832031 4.847656 "/>
<g clip-path="url(#clip1)" clip-rule="nonzero">
<path style="fill:none;stroke-width:0.59776;stroke-linecap:butt;stroke-linejoin:miter;stroke:rgb(0%,44.706726%,69.802856%);stroke-opacity:1;stroke-miterlimit:10;" d="M 7.017031 4.052344 L 0.00140625 8.103125 L -7.014219 4.052344 L -7.014219 -4.049219 L 0.00140625 -8.1 L 7.017031 -4.049219 Z M 7.017031 4.052344 " transform="matrix(1,0,0,-1,7.815,8.9)"/>
</g>
<path style=" stroke:none;fill-rule:nonzero;fill:rgb(67.999268%,82.305908%,90.336609%);fill-opacity:1;" d="M 30.421875 4.847656 L 23.40625 0.796875 L 16.390625 4.847656 L 16.390625 12.949219 L 23.40625 17 L 30.421875 12.949219 Z M 30.421875 4.847656 "/>
<g clip-path="url(#clip2)" clip-rule="nonzero">
<path style="fill:none;stroke-width:0.59776;stroke-linecap:butt;stroke-linejoin:miter;stroke:rgb(0%,44.706726%,69.802856%);stroke-opacity:1;stroke-miterlimit:10;" d="M 22.606875 4.052344 L 15.59125 8.103125 L 8.575625 4.052344 L 8.575625 -4.049219 L 15.59125 -8.1 L 22.606875 -4.049219 Z M 22.606875 4.052344 " transform="matrix(1,0,0,-1,7.815,8.9)"/>
</g>
<path style=" stroke:none;fill-rule:nonzero;fill:rgb(57.998657%,76.777649%,87.316895%);fill-opacity:1;" d="M 46.011719 4.847656 L 38.996094 0.796875 L 31.980469 4.847656 L 31.980469 12.949219 L 38.996094 17 L 46.011719 12.949219 Z M 46.011719 4.847656 "/>
<g clip-path="url(#clip3)" clip-rule="nonzero">
<path style="fill:none;stroke-width:0.59776;stroke-linecap:butt;stroke-linejoin:miter;stroke:rgb(0%,44.706726%,69.802856%);stroke-opacity:1;stroke-miterlimit:10;" d="M 38.196719 4.052344 L 31.181094 8.103125 L 24.165469 4.052344 L 24.165469 -4.049219 L 31.181094 -8.1 L 38.196719 -4.049219 Z M 38.196719 4.052344 " transform="matrix(1,0,0,-1,7.815,8.9)"/>
</g>
<path style=" stroke:none;fill-rule:nonzero;fill:rgb(45.999146%,70.141602%,83.692932%);fill-opacity:1;" d="M 61.601563 4.847656 L 54.585938 0.796875 L 47.570313 4.847656 L 47.570313 12.949219 L 54.585938 17 L 61.601563 12.949219 Z M 61.601563 4.847656 "/>
<g clip-path="url(#clip4)" clip-rule="nonzero">
<path style="fill:none;stroke-width:0.59776;stroke-linecap:butt;stroke-linejoin:miter;stroke:rgb(0%,44.706726%,69.802856%);stroke-opacity:1;stroke-miterlimit:10;" d="M 53.786563 4.052344 L 46.770938 8.103125 L 39.755313 4.052344 L 39.755313 -4.049219 L 46.770938 -8.1 L 53.786563 -4.049219 Z M 53.786563 4.052344 " transform="matrix(1,0,0,-1,7.815,8.9)"/>
</g>
<path style=" stroke:none;fill-rule:nonzero;fill:rgb(32.998657%,62.95166%,79.766846%);fill-opacity:1;" d="M 77.195313 4.847656 L 70.179688 0.796875 L 63.164063 4.847656 L 63.164063 12.949219 L 70.179688 17 L 77.195313 12.949219 Z M 77.195313 4.847656 "/>
<g clip-path="url(#clip5)" clip-rule="nonzero">
<path style="fill:none;stroke-width:0.59776;stroke-linecap:butt;stroke-linejoin:miter;stroke:rgb(0%,44.706726%,69.802856%);stroke-opacity:1;stroke-miterlimit:10;" d="M 69.380313 4.052344 L 62.364688 8.103125 L 55.349063 4.052344 L 55.349063 -4.049219 L 62.364688 -8.1 L 69.380313 -4.049219 Z M 69.380313 4.052344 " transform="matrix(1,0,0,-1,7.815,8.9)"/>
</g>
<path style=" stroke:none;fill-rule:nonzero;fill:rgb(17.999268%,54.658508%,75.239563%);fill-opacity:1;" d="M 92.785156 4.847656 L 85.769531 0.796875 L 78.753906 4.847656 L 78.753906 12.949219 L 85.769531 17 L 92.785156 12.949219 Z M 92.785156 4.847656 "/>
<g clip-path="url(#clip6)" clip-rule="nonzero">
<path style="fill:none;stroke-width:0.59776;stroke-linecap:butt;stroke-linejoin:miter;stroke:rgb(0%,44.706726%,69.802856%);stroke-opacity:1;stroke-miterlimit:10;" d="M 84.970156 4.052344 L 77.954531 8.103125 L 70.938906 4.052344 L 70.938906 -4.049219 L 77.954531 -8.1 L 84.970156 -4.049219 Z M 84.970156 4.052344 " transform="matrix(1,0,0,-1,7.815,8.9)"/>
</g>
<path style=" stroke:none;fill-rule:nonzero;fill:rgb(0%,44.706726%,69.802856%);fill-opacity:1;" d="M 108.375 4.847656 L 101.359375 0.796875 L 94.34375 4.847656 L 94.34375 12.949219 L 101.359375 17 L 108.375 12.949219 Z M 108.375 4.847656 "/>
<g clip-path="url(#clip7)" clip-rule="nonzero">
<path style="fill:none;stroke-width:0.59776;stroke-linecap:butt;stroke-linejoin:miter;stroke:rgb(0%,44.706726%,69.802856%);stroke-opacity:1;stroke-miterlimit:10;" d="M 100.56 4.052344 L 93.544375 8.103125 L 86.52875 4.052344 L 86.52875 -4.049219 L 93.544375 -8.1 L 100.56 -4.049219 Z M 100.56 4.052344 " transform="matrix(1,0,0,-1,7.815,8.9)"/>
</g>
<path style=" stroke:none;fill-rule:nonzero;fill:rgb(25%,25%,25%);fill-opacity:1;" d="M 13.8125 8.898438 L 10.136719 11.984375 L 11.414063 8.898438 L 10.136719 5.816406 Z M 13.8125 8.898438 "/>
<path style=" stroke:none;fill-rule:nonzero;fill:rgb(25%,25%,25%);fill-opacity:1;" d="M 29.40625 8.898438 L 25.726563 11.984375 L 27.003906 8.898438 L 25.726563 5.816406 Z M 29.40625 8.898438 "/>
<path style=" stroke:none;fill-rule:nonzero;fill:rgb(25%,25%,25%);fill-opacity:1;" d="M 44.996094 8.898438 L 41.320313 11.984375 L 42.597656 8.898438 L 41.320313 5.816406 Z M 44.996094 8.898438 "/>
<path style=" stroke:none;fill-rule:nonzero;fill:rgb(25%,25%,25%);fill-opacity:1;" d="M 60.585938 8.898438 L 56.910156 11.984375 L 58.1875 8.898438 L 56.910156 5.816406 Z M 60.585938 8.898438 "/>
<path style=" stroke:none;fill-rule:nonzero;fill:rgb(25%,25%,25%);fill-opacity:1;" d="M 76.175781 8.898438 L 72.5 11.984375 L 73.777344 8.898438 L 72.5 5.816406 Z M 76.175781 8.898438 "/>
<path style=" stroke:none;fill-rule:nonzero;fill:rgb(25%,25%,25%);fill-opacity:1;" d="M 91.769531 8.898438 L 88.089844 11.984375 L 89.367188 8.898438 L 88.089844 5.816406 Z M 91.769531 8.898438 "/>
<path style=" stroke:none;fill-rule:nonzero;fill:rgb(25%,25%,25%);fill-opacity:1;" d="M 107.359375 8.898438 L 103.683594 11.984375 L 104.960938 8.898438 L 103.683594 5.816406 Z M 107.359375 8.898438 "/>
</g>
</svg>
