<?xml version="1.0" encoding="UTF-8"?>
<svg xmlns="http://www.w3.org/2000/svg" xmlns:xlink="http://www.w3.org/1999/xlink" width="168.842pt" height="80.154pt" viewBox="0 0 168.842 80.154" version="1.1">
<defs>
<clipPath id="clip1">
  <path d="M 142 25 L 168.84375 25 L 168.84375 55 L 142 55 Z M 142 25 "/>
</clipPath>
<clipPath id="clip2">
  <path d="M 134 16 L 168.84375 16 L 168.84375 64 L 134 64 Z M 134 16 "/>
</clipPath>
<clipPath id="clip3">
  <path d="M 6 41 L 49 41 L 49 80.152344 L 6 80.152344 Z M 6 41 "/>
</clipPath>
<clipPath id="clip4">
  <path d="M 34 41 L 78 41 L 78 80.152344 L 34 80.152344 Z M 34 41 "/>
</clipPath>
<clipPath id="clip5">
  <path d="M 63 41 L 106 41 L 106 80.152344 L 63 80.152344 Z M 63 41 "/>
</clipPath>
<clipPath id="clip6">
  <path d="M 91 41 L 134 41 L 134 80.152344 L 91 80.152344 Z M 91 41 "/>
</clipPath>
<clipPath id="clip7">
  <path d="M 119 41 L 163 41 L 163 80.152344 L 119 80.152344 Z M 119 41 "/>
</clipPath>
</defs>
<g id="surface1">
<path style="fill-rule:nonzero;fill:rgb(79.705811%,75.979614%,78.529358%);fill-opacity:1;stroke-width:0.59776;stroke-linecap:butt;stroke-linejoin:miter;stroke:rgb(79.705811%,75.979614%,78.529358%);stroke-opacity:1;stroke-miterlimit:10;" d="M 12.756375 56.461938 L -0.0014375 63.829125 L -12.755344 56.461938 L -12.755344 41.731469 L -0.0014375 34.368188 L 12.756375 41.731469 Z M 12.756375 56.461938 " transform="matrix(1,0,0,-1,27.728,64.626)"/>
<path style="fill-rule:nonzero;fill:rgb(79.705811%,75.979614%,78.529358%);fill-opacity:1;stroke-width:0.59776;stroke-linecap:butt;stroke-linejoin:miter;stroke:rgb(79.705811%,75.979614%,78.529358%);stroke-opacity:1;stroke-miterlimit:10;" d="M 41.104031 56.461938 L 28.346219 63.829125 L 15.592313 56.461938 L 15.592313 41.731469 L 28.346219 34.368188 L 41.104031 41.731469 Z M 41.104031 56.461938 " transform="matrix(1,0,0,-1,27.728,64.626)"/>
<path style="fill-rule:nonzero;fill:rgb(79.705811%,75.979614%,78.529358%);fill-opacity:1;stroke-width:0.59776;stroke-linecap:butt;stroke-linejoin:miter;stroke:rgb(79.705811%,75.979614%,78.529358%);stroke-opacity:1;stroke-miterlimit:10;" d="M 69.447781 56.461938 L 56.693875 63.829125 L 43.936063 56.461938 L 43.936063 41.731469 L 56.693875 34.368188 L 69.447781 41.731469 Z M 69.447781 56.461938 " transform="matrix(1,0,0,-1,27.728,64.626)"/>
<path style="fill-rule:nonzero;fill:rgb(79.705811%,75.979614%,78.529358%);fill-opacity:1;stroke-width:0.59776;stroke-linecap:butt;stroke-linejoin:miter;stroke:rgb(79.705811%,75.979614%,78.529358%);stroke-opacity:1;stroke-miterlimit:10;" d="M -1.4155 31.915063 L -14.173312 39.278344 L -26.931125 31.915063 L -26.931125 17.184594 L -14.173312 9.821313 L -1.4155 17.184594 Z M -1.4155 31.915063 " transform="matrix(1,0,0,-1,27.728,64.626)"/>
<path style="fill-rule:nonzero;fill:rgb(79.705811%,75.979614%,78.529358%);fill-opacity:1;stroke-width:0.59776;stroke-linecap:butt;stroke-linejoin:miter;stroke:rgb(79.705811%,75.979614%,78.529358%);stroke-opacity:1;stroke-miterlimit:10;" d="M 55.275906 31.915063 L 42.522 39.278344 L 29.764188 31.915063 L 29.764188 17.184594 L 42.522 9.821313 L 55.275906 17.184594 Z M 55.275906 31.915063 " transform="matrix(1,0,0,-1,27.728,64.626)"/>
<path style="fill-rule:nonzero;fill:rgb(79.705811%,75.979614%,78.529358%);fill-opacity:1;stroke-width:0.59776;stroke-linecap:butt;stroke-linejoin:miter;stroke:rgb(79.705811%,75.979614%,78.529358%);stroke-opacity:1;stroke-miterlimit:10;" d="M 111.971219 31.915063 L 99.213406 39.278344 L 86.4595 31.915063 L 86.4595 17.184594 L 99.213406 9.821313 L 111.971219 17.184594 Z M 111.971219 31.915063 " transform="matrix(1,0,0,-1,27.728,64.626)"/>
<g clip-path="url(#clip1)" clip-rule="nonzero">
<path style=" stroke:none;fill-rule:nonzero;fill:rgb(79.705811%,75.979614%,78.529358%);fill-opacity:1;" d="M 168.042969 32.710938 L 155.289063 25.347656 L 142.53125 32.710938 L 142.53125 47.441406 L 155.289063 54.804688 L 168.042969 47.441406 Z M 168.042969 32.710938 "/>
</g>
<g clip-path="url(#clip2)" clip-rule="nonzero">
<path style="fill:none;stroke-width:0.59776;stroke-linecap:butt;stroke-linejoin:miter;stroke:rgb(79.705811%,75.979614%,78.529358%);stroke-opacity:1;stroke-miterlimit:10;" d="M 140.314969 31.915063 L 127.561063 39.278344 L 114.80325 31.915063 L 114.80325 17.184594 L 127.561063 9.821313 L 140.314969 17.184594 Z M 140.314969 31.915063 " transform="matrix(1,0,0,-1,27.728,64.626)"/>
</g>
<path style=" stroke:none;fill-rule:nonzero;fill:rgb(79.705811%,75.979614%,78.529358%);fill-opacity:1;" d="M 40.484375 57.261719 L 27.726563 49.894531 L 14.972656 57.261719 L 14.972656 71.992188 L 27.726563 79.355469 L 40.484375 71.992188 Z M 40.484375 57.261719 "/>
<g clip-path="url(#clip3)" clip-rule="nonzero">
<path style="fill:none;stroke-width:0.59776;stroke-linecap:butt;stroke-linejoin:miter;stroke:rgb(79.705811%,75.979614%,78.529358%);stroke-opacity:1;stroke-miterlimit:10;" d="M 12.756375 7.364281 L -0.0014375 14.731469 L -12.755344 7.364281 L -12.755344 -7.366187 L -0.0014375 -14.729469 L 12.756375 -7.366187 Z M 12.756375 7.364281 " transform="matrix(1,0,0,-1,27.728,64.626)"/>
</g>
<path style=" stroke:none;fill-rule:nonzero;fill:rgb(79.705811%,75.979614%,78.529358%);fill-opacity:1;" d="M 68.832031 57.261719 L 56.074219 49.894531 L 43.320313 57.261719 L 43.320313 71.992188 L 56.074219 79.355469 L 68.832031 71.992188 Z M 68.832031 57.261719 "/>
<g clip-path="url(#clip4)" clip-rule="nonzero">
<path style="fill:none;stroke-width:0.59776;stroke-linecap:butt;stroke-linejoin:miter;stroke:rgb(79.705811%,75.979614%,78.529358%);stroke-opacity:1;stroke-miterlimit:10;" d="M 41.104031 7.364281 L 28.346219 14.731469 L 15.592313 7.364281 L 15.592313 -7.366187 L 28.346219 -14.729469 L 41.104031 -7.366187 Z M 41.104031 7.364281 " transform="matrix(1,0,0,-1,27.728,64.626)"/>
</g>
<path style=" stroke:none;fill-rule:nonzero;fill:rgb(79.705811%,75.979614%,78.529358%);fill-opacity:1;" d="M 97.175781 57.261719 L 84.421875 49.894531 L 71.664063 57.261719 L 71.664063 71.992188 L 84.421875 79.355469 L 97.175781 71.992188 Z M 97.175781 57.261719 "/>
<g clip-path="url(#clip5)" clip-rule="nonzero">
<path style="fill:none;stroke-width:0.59776;stroke-linecap:butt;stroke-linejoin:miter;stroke:rgb(79.705811%,75.979614%,78.529358%);stroke-opacity:1;stroke-miterlimit:10;" d="M 69.447781 7.364281 L 56.693875 14.731469 L 43.936063 7.364281 L 43.936063 -7.366187 L 56.693875 -14.729469 L 69.447781 -7.366187 Z M 69.447781 7.364281 " transform="matrix(1,0,0,-1,27.728,64.626)"/>
</g>
<path style=" stroke:none;fill-rule:nonzero;fill:rgb(79.705811%,75.979614%,78.529358%);fill-opacity:1;" d="M 125.523438 57.261719 L 112.769531 49.894531 L 100.011719 57.261719 L 100.011719 71.992188 L 112.769531 79.355469 L 125.523438 71.992188 Z M 125.523438 57.261719 "/>
<g clip-path="url(#clip6)" clip-rule="nonzero">
<path style="fill:none;stroke-width:0.59776;stroke-linecap:butt;stroke-linejoin:miter;stroke:rgb(79.705811%,75.979614%,78.529358%);stroke-opacity:1;stroke-miterlimit:10;" d="M 97.795438 7.364281 L 85.041531 14.731469 L 72.283719 7.364281 L 72.283719 -7.366187 L 85.041531 -14.729469 L 97.795438 -7.366187 Z M 97.795438 7.364281 " transform="matrix(1,0,0,-1,27.728,64.626)"/>
</g>
<path style=" stroke:none;fill-rule:nonzero;fill:rgb(79.705811%,75.979614%,78.529358%);fill-opacity:1;" d="M 153.871094 57.261719 L 141.117188 49.894531 L 128.359375 57.261719 L 128.359375 71.992188 L 141.117188 79.355469 L 153.871094 71.992188 Z M 153.871094 57.261719 "/>
<g clip-path="url(#clip7)" clip-rule="nonzero">
<path style="fill:none;stroke-width:0.59776;stroke-linecap:butt;stroke-linejoin:miter;stroke:rgb(79.705811%,75.979614%,78.529358%);stroke-opacity:1;stroke-miterlimit:10;" d="M 126.143094 7.364281 L 113.389188 14.731469 L 100.631375 7.364281 L 100.631375 -7.366187 L 113.389188 -14.729469 L 126.143094 -7.366187 Z M 126.143094 7.364281 " transform="matrix(1,0,0,-1,27.728,64.626)"/>
</g>
<path style=" stroke:none;fill-rule:nonzero;fill:rgb(97.059631%,53.529358%,52.056885%);fill-opacity:1;" d="M 78.042969 26.574219 L 76.273438 16.523438 L 80.59375 22.15625 L 87.632813 23.085938 Z M 78.042969 26.574219 "/>
<path style=" stroke:none;fill-rule:nonzero;fill:rgb(25%,58.529663%,77.352905%);fill-opacity:1;" d="M 93.351563 64.625 L 87.878906 69.21875 L 89.777344 64.625 L 87.878906 60.035156 Z M 93.351563 64.625 "/>
</g>
</svg>
